<svg version="1" xmlns="http://www.w3.org/2000/svg" width="673.333" height="673.333" viewBox="0 0 505.000000 505.000000"><path d="M251 79.2c0 5.1-.3 14.4-.7 20.5l-.6 11.3h7.6c7.4 0 7.7-.1 7.7-2.4 0-2-.6-2.4-4-3l-4-.6V93h4.1c3.8 0 4-.1 3.7-2.8-.3-2.3-.8-2.7-4.1-3l-3.8-.3.3-5.2.3-5.2 4.8-.3c4.6-.3 4.8-.4 4.5-3-.3-2.6-.5-2.7-8-3l-7.8-.3v9.3zM224.3 73.4c-2.7 2.4-2.8 2.7-2.8 12.3.1 11.6 1.8 19.3 5.2 23.4 2 2.4 3.2 2.9 6.8 2.9 7.9 0 10.6-4.7 9.7-16.8-.5-6.8-.8-7-8.1-5.6-2.4.5-3.1 1.2-3.1 3 0 1.9.5 2.4 2.6 2.4 2.4 0 2.5.2 2.2 5.2-.3 4.6-.6 5.3-2.6 5.6-1.7.3-2.5-.4-3.6-3-2-4.8-3.7-20.3-2.6-23.3 1.2-3.1 4.3-3.3 6.3-.5 1.3 1.8 1.8 1.9 4.1.9 3.2-1.5 3.2-2 0-5.8-3.4-4.1-9.8-4.4-14.1-.7zM275.5 74.2c-1.1 4.9-6.5 37.2-6.2 37.5.5.4 10.7 2.3 12.7 2.3 2.1 0 3.4-4.1 1.7-5.2-.7-.4-2.4-.8-3.9-.8s-2.9-.3-3.1-.8c-.2-.4.8-8.1 2.4-17.1 1.6-9 2.6-16.8 2.3-17.2-.3-.5-1.6-.9-2.9-.9-1.7 0-2.6.7-3 2.2zM406.5 76c1 1.1 2 2 2.3 2 .3 0-.3-.9-1.3-2s-2-2-2.3-2c-.3 0 .3.9 1.3 2zM94.9 78.7l-2.4 2.8 2.8-2.4c2.5-2.3 3.2-3.1 2.4-3.1-.2 0-1.4 1.2-2.8 2.7zM196.4 78c-3.6 1.4-5.4 5-5.4 10.6 0 9.4 6.4 25.9 11 28.4 3.5 1.9 8.9 1.2 11.5-1.5 3.7-3.6 3.6-11-.3-22.9-4-12.4-9.9-17.4-16.8-14.6zm6.4 7.5c2.7 3.4 6.6 16 6.7 21.5 0 3.9-.3 4.5-2.2 4.8-2.6.4-4.9-3.6-8.2-14.2-2.4-7.7-2.6-11.7-.9-13.4 1.7-1.7 2.4-1.5 4.6 1.3zM296.6 81c-4.1 5-4.3 8.9-.7 16.6 3.6 7.7 3.8 9.7 1.1 12.4-2.1 2.1-4.2 1.8-7.2-.8-1.5-1.3-1.8-1.2-2.4 1.2-.8 3.5 0 5.4 3.1 6.6 4.3 1.7 7.3 1.1 10.6-1.8 4.6-4.1 5.1-10.8 1.4-19-2.9-6.5-3-9.9-.2-11.6 1.3-.8 2.4-.7 4.6.6 2.6 1.4 3 1.4 3.5.1 1.9-4.8-.6-7.3-7.2-7.3-3.2 0-4.5.6-6.6 3z"/><path d="M421.7 90.5c18.7 21.2 28 34.8 38.9 57 17.9 36.7 24.9 70.2 23.3 112.5-4.1 106.9-81.6 197-186.8 217.4-76 14.8-153.5-8.9-208.1-63.4-34.6-34.5-56.9-77.8-65.1-126.5-3-17.3-3.7-48.9-1.5-65.5 4.9-37.3 17.4-71 37.3-100.9 9.4-14 14.5-20.3 24.7-30.9 3.9-3.9 6.5-7.2 5.9-7.2-1.5 0-13.9 13.4-23.3 25.1-28.4 35.5-45.9 77.7-51 122.9-1.6 13.4-1.6 38.5-.1 52 13.7 121 115.3 212 236.6 212 56.6 0 112.3-20.5 155-57.2 63.3-54.3 93.5-137.2 79.9-219.8-7.8-47.7-30.2-91.9-63.9-126.5l-10.7-11 8.9 10z"/><path d="M175.3 86.5l-2.1 1.5 3.9 12.2c2.2 7.1 3.1 11.4 2.3 10.3-.9-1.1-4.3-5.7-7.5-10.3-3.3-4.5-6.3-8.2-6.7-8.2-.4.1-1.7.6-3 1.3-2.2 1.3-2 1.6 10.4 17.5 7 8.9 13 16.2 13.4 16.2.3 0 1.4-.6 2.3-1.3 1.6-1.1 1.3-2.7-3.9-21-3.1-10.8-6-19.7-6.3-19.7-.4 0-1.6.7-2.8 1.5zM144.4 105.2c-2.6 1.8-4.8 3.7-4.7 4.1.1 1.1 22.6 32.6 23.3 32.6.3.1 1.5-.7 2.8-1.7l2.2-1.7-4.5-6.3c-2.5-3.4-4.3-6.2-4-6.2.3 0 3.5 2 7.2 4.4 6.4 4.3 6.7 4.4 8.9 2.8 1.3-.9 2.4-2 2.4-2.4 0-.3-3.7-3-8.3-5.9-7.7-4.8-8.3-5.4-7.9-8 .6-4-1.4-8.3-5.5-11.9-4.3-3.8-5.9-3.8-11.9.2zm9.5 6.7c2.2 3 2.8 7.1 1.1 7.1-1.1 0-7-7.7-7-9.2 0-2 4-.6 5.9 2.1zM125.6 120.9l-4.9 5 13.8 14.5c7.6 8 14.1 14.6 14.4 14.6.4 0 3-2.4 5.9-5.3 5.3-5.3 5.3-5.3 3.2-7.2-2-1.8-2.1-1.8-5.3 1.3l-3.3 3.2-4.4-4.5-4.4-4.4 2.7-2.1c3-2.4 3.4-4.2 1.3-6-1.2-.9-2.1-.7-4.5 1.1l-3.1 2.3-4-3.9-4-3.9 3-3.1c2.9-3 3-3.2 1.2-4.8-1-.9-2.1-1.7-2.3-1.7-.3 0-2.7 2.2-5.3 4.9zM320.3 120.5c-6.2 1.7-12.4 4.7-17.1 8.2l-3.4 2.6-8.6-2.7c-15.8-4.8-22.8-5.9-38.7-6-16.8-.1-25.5 1.2-39.5 5.6-45.5 14.5-79.4 53.1-87.4 99.8-2 11.8-2.1 32.1-.1 43.4.8 4.8 2.8 12.8 4.5 17.8l2.9 9.1-3.5 4c-4.2 5-6.9 10.4-8.9 18.3-1.3 5.1-1.5 13.7-1.3 57l.3 50.9 3.7-5 3.8-5v-44c0-45.9.6-52.9 4.6-60.6 2.2-4.4 27-30.3 30.9-32.4 2.8-1.5 3.7-1.6 11.4-.1 10.1 1.9 16.8 2 24.2.2l5.7-1.3 4.3 5c8.7 10.2 32.7 23.1 50.9 27.6 6.3 1.5 12.9 3.5 14.7 4.4 6 3.1 6.3 4.4 6.3 23.6 0 15.7-.2 17.7-2 20.6-3.4 5.4-7.7 6.8-23 7.3-14.3.4-25.9-1-37.5-4.6l-6-1.8 6.2-3.2 6.2-3.2H250c22.6 0 26.1-.2 26.7-1.5.3-.9.2-1.9-.2-2.3-.3-.4-12.4-.9-26.7-1.2l-26.1-.5-5.6-9.5c-5.4-9.1-8.2-11.7-9.4-8.7-.3.8 1.9 5.5 4.9 10.6 3 5 5.4 9.4 5.4 9.6 0 .3-3.2 2.1-7.1 4l-7 3.6-6.2-3.1c-3.4-1.7-9-4.9-12.5-7.2l-6.2-4.1 4.3-5.1c5.5-6.4 8.9-7.8 37.6-15.5 12.2-3.3 22.5-6.3 23.1-6.6 1.5-.9 1.2-5.1-.5-6.5-1.2-1-6.1 0-26.1 5.4-31.4 8.4-33.6 9.5-41.9 19.8-3.6 4.4-6.5 8.6-6.5 9.3 0 2 2.6 4.3 12.1 10.5 22.6 14.9 51.3 22.1 78.9 20 11-.9 16.1-2.7 21.2-7.7 6-5.9 7-10.5 6.6-30.1-.4-19.6-1.6-23.2-9.3-28.1-4.5-2.8-6-3.3-21.3-7-12.9-3.1-35.4-15.3-42.9-23.2-1.8-1.9-5.2-7-7.5-11.4-3.4-6.2-5.1-8.4-7.8-9.6-1.9-1-7.8-3.8-13.1-6.3l-9.6-4.7 5.1-5.5c5.9-6.5 8.6-8.1 16.1-9.5 5.1-.9 6-.8 12.7 2.2 6.6 2.9 7.8 3.1 15.2 2.7 13.1-.7 20.9-6.2 27.9-19.5 4-7.8 10.7-28.1 10.7-32.7 0-7.7 1.4-9.6 22.2-30.7 11.2-11.3 22.3-21.7 24.8-23.2 9.5-5.4 12.6-5.7 64.1-5.7h47.3l5.3-3.7c2.9-2 5.3-3.8 5.3-4 0-.1-24.4-.3-54.2-.2-43.5 0-55.3.3-59.5 1.4zm-38.9 13.9c5.5 1.4 10.4 3 10.8 3.4.5.5-6.4 8-15.3 16.7-8.9 8.8-16.8 17.4-17.5 19.2-.8 1.8-1.9 6.5-2.4 10.4-2.3 16.5-11.6 37.7-18.6 42.6-7.6 5.3-15.9 5.7-25.2 1.2-5.9-2.9-7-3.1-13.3-2.6-9.3.8-15.3 3.6-22.4 10.7-3.3 3.2-8.9 8.5-12.4 11.7l-6.3 5.8 5.8.7c4.1.5 8.8 2.2 15.4 5.6 5.2 2.7 10.9 5.3 12.6 5.6 5.3 1.2 9 7 5.1 7.9-6.9 1.7-12.1 1.7-20.5.3-5.1-.9-10.7-1.6-12.5-1.6-4.6 0-11.3 4.7-18.9 13.2l-6.3 7.1-2.3-7.4c-2.7-8.5-5.2-23.9-5.2-31.9v-5.4l5 4.9c3.4 3.3 5.4 6.3 6.1 9 3.3 12.7 4.1 14.5 5.9 14.5 2.8 0 2.8-1.7.3-10.7l-2.4-8.2 13.1-14.5c12.4-13.6 13.3-14.4 15.7-13.5 1.7.6 3 .6 3.9-.2 1.8-1.5.7-3.6-2.1-4.3-1.8-.5-2.5-1.5-2.9-3.9-.6-3.9-2.6-30.1-2.6-34.4 0-2.8 1.4-4.1 19.3-17 10.5-7.7 19.7-14.3 20.4-14.7.7-.3 9.2 2.7 19 6.8l17.8 7.4.3 8.6c.2 6.8.6 8.8 1.8 9.3 2.5.9 3.4-1.6 3.4-10v-7.8l3.5-1.5c2.3-.9 3.5-2.1 3.5-3.4 0-2.4-1.8-2.5-6.3-.6-3.2 1.3-4 1.1-20.5-5.8-9.4-3.9-17.4-7.4-17.7-7.8-.4-.3.9-4 2.8-8.2 2.6-5.6 4.1-7.7 5.9-8.1 8.3-2 13.2-2.4 28.8-2.1 15 .3 18.9.7 27.4 3zm-67.7 8.2c-3.2 6.5-3.5 6.8-24.3 21.9-20 14.7-21.3 15.4-27.5 16.4-9.5 1.6-9.5 1.6-5.4-3.7 13.6-16.9 31-30.2 49.9-37.9 4.4-1.8 8.7-3.3 9.3-3.3.8 0 .1 2.4-2 6.6zM167 187.2c0 1.3.7 10.1 1.5 19.7l1.4 17.5-7.7 8.5c-4.2 4.7-10 11-12.9 14l-5.2 5.6-6-6-6.1-6 1.5-9.2c.8-5 2.7-12.9 4.1-17.5 2.8-9 9.9-24.4 11.8-25.5.6-.4 4.5-1.3 8.6-1.9 4.1-.6 7.8-1.2 8.3-1.3.4 0 .7.9.7 2.1z"/><path d="M231 217.1c-8.4 5.9-11.3 9.9-7.3 9.9 2.6 0 19.8-12.2 19.8-14 0-3.1-4.3-1.6-12.5 4.1zM109.5 139c-2.6 3.4-4.3 6.5-3.9 6.9 7.7 6.6 31.7 24.1 32.3 23.5 4.7-5.7 8.1-10.4 8.1-11.3 0-.6-.9-1.5-2.1-2.1-2.1-1.2-3.3-.4-6 4.3-1 1.7-1.4 1.5-5.7-1.9-2.6-2.1-4.9-3.9-5-4-.2-.1.6-1.6 1.9-3.3 1.8-2.5 2-3.3.9-4.6-1.8-2.2-3.1-1.9-5.6 1.2l-2.1 2.6-4.6-3.3-4.6-3.3 2.6-3.4 2.6-3.4-2-2.1-2-2-4.8 6.2zM327.9 135.6c-.9 1.1-1 2-.2 3.2.9 1.5 4.2 1.8 25.4 2.4 13.4.4 29.3 1.4 35.2 2.1l10.8 1.3 4.1-2.9c2.9-2.2 3.6-3.2 2.6-3.8-6.4-3.5-75.2-5.6-77.9-2.3zM335.1 149.4c-1.1 1.3-.6 4.6.8 4.6 18.8.6 28.4 1.2 35.8 2.1 8.3 1 9.4 1 12.2-.7 1.7-1 3.1-2.1 3.1-2.5 0-.3-2.6-1.1-5.7-1.8-16.3-3.1-44.1-4.2-46.2-1.7zM95 159.9c-.5 1.1-1 2.2-1 2.4 0 .3 4.2 3.8 9.3 7.8 11.4 9 11.6 9.1 9.7 8.5-.8-.3-6.4-1.9-12.4-3.6-10.4-3-11.1-3.1-12.3-1.4-.7 1-1.3 2.1-1.3 2.5 0 .9 34 22.3 34.4 21.8.2-.2.8-1.4 1.5-2.6 1.2-2.4.9-2.7-11.2-9.8-2.6-1.5-4.6-2.9-4.4-3.1.2-.2 4.7.9 10 2.5 9.6 2.9 9.7 2.9 10.8.9.6-1.1.9-2.1.7-2.2-1.7-1.3-15.5-12.1-16.3-12.8-.5-.5 3.5 1.2 9 3.6l10 4.5 1.3-2.5c.8-1.5 1-2.9.5-3.3-.8-.8-35.8-15.1-36.7-15.1-.3 0-1 .9-1.6 1.9zM340.3 162.5c-.9 2.4.2 2.9 8.5 3.6 4.2.4 10 1 12.7 1.3 3.7.5 5.5.3 6.9-.9 1.1-.8 1.7-1.7 1.5-1.9-1-1-18.3-3.6-23.6-3.6-3.9 0-5.5.4-6 1.5zM343.8 176.1c-8.7 6.8-13.8 12.1-16.3 16.9-3.9 7.7-26.6 71-26.3 73.3.4 2.9 6.2 3.7 7.3 1 .4-1 6.2-17 13-35.5 6.9-18.6 13.5-35.3 14.7-37.2 1.3-1.8 4.8-5.4 7.8-7.9l5.5-4.6 3.9 6.2c7.8 12.3 14.6 31.6 16.1 46.2l.8 6.7-5.9 5.9c-3.2 3.2-6.1 5.9-6.5 5.9-.4 0-6.5-6.4-13.5-14.3-13.8-15.2-14.4-15.8-15.9-15.4-2.9 1-.4 4.8 12.4 19.1 7.8 8.6 14.1 15.8 14.1 15.9 0 .2-1.6 5-3.5 10.7-4.1 12.3-4.2 13.2-1.3 12.8 1.8-.2 2.8-2.1 5.7-11.3 3.3-10 4.1-11.5 9.3-17l5.8-6-.6 8.5c-1.1 15.7-4.9 25.7-10.7 27.9-1.2.5-12.8 1-25.7 1.2l-23.5.4-6.6-9c-9-12.1-13.4-15.8-28.4-24.4-14.1-8-17.5-8.6-17.5-3.2 0 2.7.9 3.5 12.3 9.7 13.4 7.5 21 14.2 28.7 25.3 7.1 10.3 7.5 10.4 31.8 10.2 11.4-.1 22.7-.4 25.2-.7 12.6-1.8 19.8-11 21.9-28.4 3.7-29.3-3.9-61.2-20.2-85.5-6.1-9.1-6.4-9.2-13.9-3.4z"/><path d="M417.3 188.1l-2.2.8 2.4 7.1c1.3 3.9 3.3 11.2 4.4 16.3 17 79-21.3 158.6-93.4 194.2-39.8 19.7-87.2 23.4-129.9 10.1-4.4-1.4-8.3-2.3-8.7-2.1-.3.3-.9 1.4-1.2 2.5-.4 1.7.6 2.3 8.7 4.9 18.5 5.9 29.9 7.6 53.1 7.6 22.6 0 28.6-.7 47.3-5.6 58-15.2 105-59.3 124.2-116.8 12.1-36.1 12.6-74.2 1.5-110.8-1.4-4.5-2.9-8.4-3.3-8.6-.4-.3-1.7-.1-2.9.4zM78.6 198.6c-.4 1.5-.5 2.8-.2 3.1.2.2 8 2.8 17.3 5.7 9.2 2.9 17.8 5.6 19 6 2 .6 2.4.1 4.4-6.4 1.2-3.9 1.9-7.3 1.7-7.5-.2-.3-1.5-.6-2.8-.7-2-.3-2.5.3-3.3 3.4-.5 2.1-1.2 3.8-1.5 3.8-.4 0-7.8-2.3-16.5-5-8.7-2.8-16.2-5-16.7-5-.4 0-1.1 1.2-1.4 2.6z"/><path d="M382.5 200.9c-.3.5.6 4.9 2 9.8 8.1 27.7 7 61.5-2.9 87.6-14.9 39.4-48.5 71.5-88.2 84-14.9 4.7-24.6 6.1-42.4 6.1-17.3-.1-29.3-1.9-42.3-6.3l-5.8-2-1.1 2.4c-.6 1.4-.9 2.7-.7 2.9 1.2 1.2 19.5 5.9 28.3 7.3 13.4 2.1 40.4 1.3 52.6-1.5 80.2-18.7 129.3-97.6 109.5-176-3.2-12.6-4.3-15.2-6.6-15.2-1 0-2 .4-2.4.9zM74.1 218.1c-.6 3.9-1 7.3-.9 7.5.2.1 9.2 1.8 20.1 3.7l19.7 3.4.5-2.1c1.3-5.9 2.2-12.6 1.7-13.1-.3-.3-1.5-.5-2.8-.5-1.8 0-2.3.7-2.9 4.1l-.7 4.1-4.5-.6c-2.5-.3-5.2-.6-6-.6-1.1 0-1.4-1.1-1.1-4.3.2-3.9.1-4.2-2.4-4.5-2.4-.3-2.8.1-3.4 3.2-.7 3.9-1.1 4-7.7 2.9l-3.8-.6.3-4.6c.3-4.3.1-4.6-2.3-4.9-2.5-.3-2.6 0-3.8 6.9zM409 232c0 2 .5 3 1.5 3 .8 0 1.5-.5 1.5-1 0-.6 1.2-1 2.6-1 4.8 0 1.9 2.5-4 3.4-4.3.6-6.1.5-6.9-.4-.9-1-.9-1.4.1-1.7 1.5-.6 1.6-2.9.2-3.8-3-1.9-5.5 5.6-2.8 8.3.7.7 4 1.2 7.9 1.2 5.2 0 7.2-.4 9.3-2.1 5-3.9 2.1-8.9-5.2-8.9-4 0-4.2.1-4.2 3zM98.3 237c-1.8.4-5.8 2.8-8.9 5.4-5.9 4.8-9.2 5.7-11.5 3-1-1.2-1-2.2-.2-4.4 1-2.6.9-2.8-1.9-3.2-5.5-.9-6.8 7.3-1.9 12.3 2.5 2.4 3.8 2.9 8 2.9 4.6 0 5.5-.4 10.7-5 4.4-3.8 6.5-5 9-5 4.5 0 6.1 2.9 4 7.1l-1.5 3 3.7-.3c3.4-.3 3.8-.6 4.6-4 2-8-5.1-13.9-14.1-11.8zM189.5 242.2c-2.9 1.6-2.9 1.6-1.5 3.3 1.7 2.1 4.3 1.9 6.6-.6 1.6-1.7 1.6-2.2.4-2.9-1.9-1.2-3-1.2-5.5.2zM97.4 258.4c-1.7.8-4.9 3.5-7 6.1-4.5 5.4-7.6 7-10.6 5.4-1.6-.8-1.9-1.8-1.6-4.5.4-3.4.3-3.5-2.6-3.2-2.9.3-3.1.6-3.4 4.9-.3 4.1 0 4.9 2.8 7.3 3.4 2.8 8.5 3.4 12.3 1.5 1.2-.6 4.5-3.5 7.3-6.5 4.1-4.3 5.7-5.4 8.2-5.4 3.9 0 5.6 2.7 4.2 6.4-.9 2.4-.8 2.6 2 2.6 5.5 0 6.8-7 2.3-12-3.3-3.7-9.1-4.8-13.9-2.6zM401.3 263.2c-.6.7-1.3 2.5-1.7 3.9-.7 3.2-.1 3.4 12.2 4.5 7 .6 8.2.4 8.2-.9 0-.8-1.2-1.8-2.7-2.2l-2.8-.8 3.3-.9c1.7-.5 3.2-1.5 3.2-2.3 0-1.7-2.1-1.9-6.6-.6-2.1.6-3.6.5-4.9-.5-2.3-1.7-6.9-1.8-8.2-.2zm6 3.5c-.7.2-2.1.2-3 0-1-.3-.4-.5 1.2-.5 1.7 0 2.4.2 1.8.5zM93 282.6c-7.4 1.8-14.5 3.6-15.8 3.9-1.9.5-2.1 1-1.6 3.3.4 1.5.8 2.8 1 3 .1.2 7-1.3 15.3-3.3 17.4-4.3 19.7-4.3 19.4-.2-.2 2.7 0 2.8 2.5 2.2 4.1-1 4.7-2 3.3-6.5-2.1-7.1-4.4-7.3-24.1-2.4z"/><path d="M394.5 292c-1.1 1.8.3 2.6 8 4.9 4.1 1.3 7.5 2.6 7.5 3 0 1.9-1.6 1.8-8.7-.6-5.5-1.9-7.8-2.2-8.6-1.4-1.6 1.6-.2 2.5 7.2 5 8.8 2.9 11.8 2.8 13.3-.5 1.8-3.8.1-5.5-8.3-8.6-8.3-3-9.5-3.2-10.4-1.8zM99.5 300.5c-9.9 3.6-18.1 6.5-18.2 6.5-.8 0-.1 2.9 1 4.4 1.2 1.6 2.6 1.2 19.7-4.9 10.1-3.6 18.6-6.7 18.8-6.9.7-.8-1.1-5.6-2.2-5.6-.6.1-9.2 3-19.1 6.5zM306.7 309.7c-1.8 1.7.2 3.8 11.6 12.2 7.8 5.7 13.8 11 16.6 14.7l4.4 5.7 4.5-4.7c2.4-2.6 4.1-5.1 3.6-5.5-.5-.5-3.7-1.8-7.2-2.9-4.4-1.5-10.1-4.9-18.7-11.1-12.4-9.1-13.6-9.7-14.8-8.4zM295 319.6c0 .9 4.7 6.7 10.4 12.8 5.7 6.1 11.8 13.7 13.6 16.8 1.7 3.2 3.5 5.8 3.9 5.8.8 0 9.1-6 9.1-6.5 0-.2-2.8-2.1-6.3-4.3-3.7-2.4-10.4-8.4-16.6-15.1-9.8-10.6-14.1-13.4-14.1-9.5zM381.6 323.2c-.9 1.2-1.6 2.7-1.6 3.3 0 .5 3.9 3.2 8.7 5.8 9.1 5.1 9.5 5.1 11-.2.5-1.9 0-3-2.1-4.8-1.5-1.3-3.4-2.3-4.2-2.3-.8 0-2.4-.9-3.6-2-2.9-2.6-6.3-2.5-8.2.2zm6.5 3.5c1.3 1.5 1.2 1.5-1.1.3-3.4-1.7-3.6-2-1.8-2 .9 0 2.2.7 2.9 1.7zm7.4 3.4c1.1 1.7.2 1.8-2.5.4-2.4-1.4-2.4-1.4-.3-1.5 1.2 0 2.5.5 2.8 1.1zM133.7 334.7c-1.1 1.1-.8 42.8.4 55.2 1.6 15.9 1.8 16.3 5.7 11.3l3.2-4-1-7.3c-.5-4.1-1-17.4-1-29.7 0-13.4-.4-23.1-1-24.3-1-1.8-5-2.6-6.3-1.2zM148 337.5c-1 1.2-1.1 4.7-.6 14.8.6 12.6 2.9 31.3 3.9 32.3.3.3 1.5-.9 2.7-2.6 2.1-3 2.2-3.5 1.1-12.5-.6-5.1-1.1-13.9-1.1-19.5s-.5-11-1-12.1c-1.3-2.3-3.3-2.5-5-.4zM160.7 339.6c-1.7 1.7.1 27.3 2 29.4.2.3 1.2-.6 2.1-1.8 1.8-2.3 1.8-3.8-.6-22.1-.7-5.1-1.9-7.1-3.5-5.5zM366.2 345.2c-.9.9-.5 1.9 1.5 4 3 3.2 2.6 3.5-1.9 1.2-2.5-1.3-3.2-1.4-4-.2-.6.9 1.2 3.2 6.4 8 4 3.7 7.7 6.8 8.1 6.8 2.3 0 1.5-3.2-1.5-6l-3.3-3.1 4.3 2.1c4.3 2.1 6.6 1.9 6-.4-.2-.7-3.5-4.1-7.4-7.4-5.4-4.6-7.4-5.8-8.2-5zM342.2 368.3l-2.1 2.3 6 7.7c3.3 4.2 6.3 7.7 6.7 7.7 1.8-.1 5.4-4.1 4.8-5.5-.5-1.3-.9-1.3-2.6-.3-1.7 1.1-2.2 1-3.4-.7-1.3-1.7-1.3-2.2 0-3.6 1.2-1.4 1.2-1.8.1-2.7-1-.9-1.7-.8-2.6.1-1 .9-1.5.8-2.7-.7-1.2-1.7-1.2-2.2.1-3.6 1.5-1.7 1.1-3-1-3-.6 0-2.1 1-3.3 2.3zM321.1 382c-1 .5-1.2 2-.8 4.6l.6 3.9-1.6-3c-2-3.9-1.9-3.8-3.6-2.8-1.2.7-.7 2.4 3.2 10 3.6 7.2 4.9 9 6 8.3 1.2-.7 1.3-1.3.3-3.4-1.4-3.1-.6-3.3 2.3-.6 1.5 1.4 2.4 1.6 3.5.9 1.2-.8.7-1.6-2.7-4.8-3.9-3.5-4.3-4.3-4.3-8.4 0-4.9-.8-6.1-2.9-4.7zM289.3 400c.4 3.5.7 8.3.7 10.7 0 3.7.3 4.4 1.8 4.1.9-.2 1.7-1.2 1.7-2.2 0-2.5 2.5-3.3 3.7-1.2 1.1 1.9 3.8 2.2 3.8.3 0-2.5-8.8-17.2-10.5-17.6-1.6-.3-1.7.3-1.2 5.9zm5.1 5.5c.3.8.1 1.5-.4 1.5-.6 0-1-.7-1-1.5s.2-1.5.4-1.5.6.7 1 1.5zM230.2 399.2c-1.8 1.8-1.4 7 .8 9.8 2.9 3.7 2.6 6.4-.6 5.7-2.1-.4-2.5-.1-2.2 1.7.4 3.1 5.1 3.4 7.2.4 2.2-3.1 2-4.9-.9-9.2-2.7-4-2.5-6.1.7-5.3 1.5.4 1.9.1 1.6-1.6-.3-2.6-4.6-3.5-6.6-1.5zM259.3 409.1c.4 5.6.8 10.3 1 10.6.2.2 1.1.1 1.8-.2 1-.4 1.3-1.7 1.1-4.5-.3-3.2 0-4.1 1.4-4.7 2.6-.9 3.4-2.3 3.4-5.9 0-3.9-1.6-5.4-5.9-5.4h-3.4l.6 10.1zm4.6-4.4c0 2.5-.1 2.6-.9.8-1.2-2.7-1.2-3.5 0-3.5.6 0 1 1.2.9 2.7z"/></svg>